<mxfile host="app.diagrams.net" modified="2024-05-16T17:39:13.840Z" agent="Mozilla/5.0 (Windows NT 10.0; Win64; x64) AppleWebKit/537.36 (KHTML, like Gecko) Chrome/124.0.0.0 Safari/537.36" etag="o_X_cjlYlab2jwWRZJ0V" version="24.4.3" type="github">
  <diagram name="PÃ¡gina-1" id="28Xvz0h8iEKMlJPiWvjV">
    <mxGraphModel dx="1434" dy="778" grid="1" gridSize="10" guides="1" tooltips="1" connect="1" arrows="1" fold="1" page="1" pageScale="1" pageWidth="827" pageHeight="1169" math="0" shadow="0">
      <root>
        <mxCell id="0" />
        <mxCell id="1" parent="0" />
        <mxCell id="kzM61OxFpQWlWOLXAQHF-1" value="" style="outlineConnect=0;dashed=0;verticalLabelPosition=bottom;verticalAlign=top;align=center;html=1;shape=mxgraph.aws3.api_gateway;fillColor=#D9A741;gradientColor=none;" vertex="1" parent="1">
          <mxGeometry x="40" y="370" width="76.5" height="93" as="geometry" />
        </mxCell>
        <mxCell id="kzM61OxFpQWlWOLXAQHF-2" value="Broker" style="sketch=0;points=[[0,0,0],[0.25,0,0],[0.5,0,0],[0.75,0,0],[1,0,0],[0,1,0],[0.25,1,0],[0.5,1,0],[0.75,1,0],[1,1,0],[0,0.25,0],[0,0.5,0],[0,0.75,0],[1,0.25,0],[1,0.5,0],[1,0.75,0]];outlineConnect=0;fontColor=#232F3E;fillColor=#8C4FFF;strokeColor=#ffffff;dashed=0;verticalLabelPosition=bottom;verticalAlign=top;align=center;html=1;fontSize=12;fontStyle=0;aspect=fixed;shape=mxgraph.aws4.resourceIcon;resIcon=mxgraph.aws4.managed_streaming_for_kafka;" vertex="1" parent="1">
          <mxGeometry x="338.5" y="230" width="78" height="78" as="geometry" />
        </mxCell>
        <mxCell id="kzM61OxFpQWlWOLXAQHF-3" value="" style="sketch=0;outlineConnect=0;fontColor=#232F3E;gradientColor=none;fillColor=#C925D1;strokeColor=none;dashed=0;verticalLabelPosition=bottom;verticalAlign=top;align=center;html=1;fontSize=12;fontStyle=0;aspect=fixed;pointerEvents=1;shape=mxgraph.aws4.rds_postgresql_instance;" vertex="1" parent="1">
          <mxGeometry x="636" y="240" width="78" height="78" as="geometry" />
        </mxCell>
        <mxCell id="kzM61OxFpQWlWOLXAQHF-4" value="" style="outlineConnect=0;dashed=0;verticalLabelPosition=bottom;verticalAlign=top;align=center;html=1;shape=mxgraph.aws3.redis;fillColor=#2E73B8;gradientColor=none;" vertex="1" parent="1">
          <mxGeometry x="630" y="473" width="90" height="80" as="geometry" />
        </mxCell>
        <mxCell id="kzM61OxFpQWlWOLXAQHF-5" value="Anti-Fraude" style="outlineConnect=0;dashed=0;verticalLabelPosition=bottom;verticalAlign=top;align=center;html=1;shape=mxgraph.aws3.lambda;fillColor=#F58534;gradientColor=none;" vertex="1" parent="1">
          <mxGeometry x="339.25" y="60" width="76.5" height="93" as="geometry" />
        </mxCell>
        <mxCell id="kzM61OxFpQWlWOLXAQHF-6" value="create / read" style="edgeStyle=orthogonalEdgeStyle;rounded=0;orthogonalLoop=1;jettySize=auto;html=1;" edge="1" parent="1" source="kzM61OxFpQWlWOLXAQHF-7" target="kzM61OxFpQWlWOLXAQHF-3">
          <mxGeometry relative="1" as="geometry">
            <Array as="points">
              <mxPoint x="550" y="417" />
              <mxPoint x="550" y="279" />
            </Array>
          </mxGeometry>
        </mxCell>
        <mxCell id="kzM61OxFpQWlWOLXAQHF-7" value="Transaccion" style="outlineConnect=0;dashed=0;verticalLabelPosition=bottom;verticalAlign=top;align=center;html=1;shape=mxgraph.aws3.lambda;fillColor=#F58534;gradientColor=none;" vertex="1" parent="1">
          <mxGeometry x="340" y="370" width="76.5" height="93" as="geometry" />
        </mxCell>
        <mxCell id="kzM61OxFpQWlWOLXAQHF-8" style="edgeStyle=orthogonalEdgeStyle;rounded=0;orthogonalLoop=1;jettySize=auto;html=1;exitX=0;exitY=1;exitDx=0;exitDy=0;exitPerimeter=0;entryX=0;entryY=0.21;entryDx=0;entryDy=0;entryPerimeter=0;" edge="1" parent="1" source="kzM61OxFpQWlWOLXAQHF-2" target="kzM61OxFpQWlWOLXAQHF-7">
          <mxGeometry relative="1" as="geometry">
            <Array as="points">
              <mxPoint x="340" y="308" />
              <mxPoint x="340" y="340" />
              <mxPoint x="320" y="340" />
              <mxPoint x="320" y="390" />
            </Array>
          </mxGeometry>
        </mxCell>
        <mxCell id="kzM61OxFpQWlWOLXAQHF-9" style="edgeStyle=orthogonalEdgeStyle;rounded=0;orthogonalLoop=1;jettySize=auto;html=1;exitX=1;exitY=0.21;exitDx=0;exitDy=0;exitPerimeter=0;entryX=1;entryY=1;entryDx=0;entryDy=0;entryPerimeter=0;" edge="1" parent="1" source="kzM61OxFpQWlWOLXAQHF-7" target="kzM61OxFpQWlWOLXAQHF-2">
          <mxGeometry relative="1" as="geometry" />
        </mxCell>
        <mxCell id="kzM61OxFpQWlWOLXAQHF-10" style="edgeStyle=orthogonalEdgeStyle;rounded=0;orthogonalLoop=1;jettySize=auto;html=1;exitX=1;exitY=0;exitDx=0;exitDy=0;exitPerimeter=0;entryX=1;entryY=0.79;entryDx=0;entryDy=0;entryPerimeter=0;" edge="1" parent="1" source="kzM61OxFpQWlWOLXAQHF-2" target="kzM61OxFpQWlWOLXAQHF-5">
          <mxGeometry relative="1" as="geometry" />
        </mxCell>
        <mxCell id="kzM61OxFpQWlWOLXAQHF-11" style="edgeStyle=orthogonalEdgeStyle;rounded=0;orthogonalLoop=1;jettySize=auto;html=1;exitX=0;exitY=0.79;exitDx=0;exitDy=0;exitPerimeter=0;entryX=0;entryY=0;entryDx=0;entryDy=0;entryPerimeter=0;" edge="1" parent="1" source="kzM61OxFpQWlWOLXAQHF-5" target="kzM61OxFpQWlWOLXAQHF-2">
          <mxGeometry relative="1" as="geometry" />
        </mxCell>
        <mxCell id="kzM61OxFpQWlWOLXAQHF-12" style="edgeStyle=orthogonalEdgeStyle;rounded=0;orthogonalLoop=1;jettySize=auto;html=1;entryX=0;entryY=0.5;entryDx=0;entryDy=0;entryPerimeter=0;" edge="1" parent="1" source="kzM61OxFpQWlWOLXAQHF-1" target="kzM61OxFpQWlWOLXAQHF-7">
          <mxGeometry relative="1" as="geometry" />
        </mxCell>
        <mxCell id="kzM61OxFpQWlWOLXAQHF-13" value="HTTP Request" style="edgeLabel;html=1;align=center;verticalAlign=middle;resizable=0;points=[];" vertex="1" connectable="0" parent="kzM61OxFpQWlWOLXAQHF-12">
          <mxGeometry x="-0.3781" y="1" relative="1" as="geometry">
            <mxPoint x="25" y="1" as="offset" />
          </mxGeometry>
        </mxCell>
        <mxCell id="kzM61OxFpQWlWOLXAQHF-14" style="edgeStyle=orthogonalEdgeStyle;rounded=0;orthogonalLoop=1;jettySize=auto;html=1;entryX=0;entryY=0.5;entryDx=0;entryDy=0;entryPerimeter=0;" edge="1" parent="1" source="kzM61OxFpQWlWOLXAQHF-7" target="kzM61OxFpQWlWOLXAQHF-4">
          <mxGeometry relative="1" as="geometry">
            <Array as="points">
              <mxPoint x="550" y="417" />
              <mxPoint x="550" y="513" />
            </Array>
          </mxGeometry>
        </mxCell>
        <mxCell id="kzM61OxFpQWlWOLXAQHF-15" value="read" style="edgeLabel;html=1;align=center;verticalAlign=middle;resizable=0;points=[];" vertex="1" connectable="0" parent="kzM61OxFpQWlWOLXAQHF-14">
          <mxGeometry x="0.2645" y="1" relative="1" as="geometry">
            <mxPoint as="offset" />
          </mxGeometry>
        </mxCell>
      </root>
    </mxGraphModel>
  </diagram>
</mxfile>
